HIERARCHY
ROOT hip
{
  OFFSET 0 90.174 2.4664
  CHANNELS 6 Xposition Yposition Zposition Zrotation Xrotation Yrotation
  JOINT abdomen
  {
    OFFSET 0 -1.186 -1.5018
    CHANNELS 6 Xposition Yposition Zposition Zrotation Xrotation Yrotation
    JOINT abdomen2
    {
      OFFSET 0 9.964 0.2134
      CHANNELS 6 Xposition Yposition Zposition Zrotation Xrotation Yrotation
      JOINT chest
      {
        OFFSET 0 13.134 -3.2573
        CHANNELS 6 Xposition Yposition Zposition Zrotation Xrotation Yrotation
        JOINT neck
        {
          OFFSET 0 20.686 -1.6905
          CHANNELS 6 Xposition Yposition Zposition Zrotation Xrotation Yrotation
          JOINT head
          {
            OFFSET 0 7.238 -0.1237
            CHANNELS 6 Xposition Yposition Zposition Zrotation Xrotation Yrotation
            End Site
            {
              OFFSET 0 0 0
            }
          }
        }
        JOINT lCollar
        {
          OFFSET 1.7069 20.075 5.0056
          CHANNELS 6 Xposition Yposition Zposition Zrotation Xrotation Yrotation
          JOINT lShldr
          {
            OFFSET 13.6458 -0.047 -4.849
            CHANNELS 6 Xposition Yposition Zposition Zrotation Xrotation Yrotation
            JOINT lForeArm
            {
              OFFSET 28.3255 -0.9759 2.2888
              CHANNELS 6 Xposition Yposition Zposition Zrotation Xrotation Yrotation
              JOINT lHand
              {
                OFFSET 22.1583 -0.53 10.8316
                CHANNELS 6 Xposition Yposition Zposition Zrotation Xrotation Yrotation
                JOINT lThumb1
                {
                  OFFSET 0.786 0.112 2.5817
                  CHANNELS 6 Xposition Yposition Zposition Zrotation Xrotation Yrotation
                  JOINT lThumb2
                  {
                    OFFSET 0.3601 -0.878 4.2331
                    CHANNELS 6 Xposition Yposition Zposition Zrotation Xrotation Yrotation
                    JOINT lThumb2_End
                    {
                      OFFSET 1.8127 -1.216 2.2227
                      CHANNELS 6 Xposition Yposition Zposition Zrotation Xrotation Yrotation
                      End Site
                      {
                        OFFSET 0.0181 -0.0122 0.0222
                      }
                    }
                  }
                }
                JOINT lCarpal1
                {
                  OFFSET 0.9571 1.114 1.7695
                  CHANNELS 6 Xposition Yposition Zposition Zrotation Xrotation Yrotation
                  JOINT lIndex1
                  {
                    OFFSET 4.1246 0.487 4.1451
                    CHANNELS 6 Xposition Yposition Zposition Zrotation Xrotation Yrotation
                    JOINT lIndex2
                    {
                      OFFSET 3.4052 -1.454 2.7682
                      CHANNELS 6 Xposition Yposition Zposition Zrotation Xrotation Yrotation
                      JOINT lIndex2_End
                      {
                        OFFSET 1.4531 -1.795 1.2713
                        CHANNELS 6 Xposition Yposition Zposition Zrotation Xrotation Yrotation
                        End Site
                        {
                          OFFSET 0.0145 -0.0179 0.0127
                        }
                      }
                    }
                  }
                  JOINT lMid1
                  {
                    OFFSET 5.6954 0.21 2.1184
                    CHANNELS 6 Xposition Yposition Zposition Zrotation Xrotation Yrotation
                    JOINT lMid2
                    {
                      OFFSET 3.9766 -1.54 2.3863
                      CHANNELS 6 Xposition Yposition Zposition Zrotation Xrotation Yrotation
                      JOINT lMid2_End
                      {
                        OFFSET 1.4042 -1.926 1.125
                        CHANNELS 6 Xposition Yposition Zposition Zrotation Xrotation Yrotation
                        End Site
                        {
                          OFFSET 0.014 -0.0193 0.0113
                        }
                      }
                    }
                  }
                }
                JOINT lCarpal2
                {
                  OFFSET 2.0956 0.66 -0.3894
                  CHANNELS 6 Xposition Yposition Zposition Zrotation Xrotation Yrotation
                  JOINT lRing1
                  {
                    OFFSET 5.0395 -0.09 2.4971
                    CHANNELS 6 Xposition Yposition Zposition Zrotation Xrotation Yrotation
                    JOINT lRing2
                    {
                      OFFSET 3.7921 -1.552 1.4806
                      CHANNELS 6 Xposition Yposition Zposition Zrotation Xrotation Yrotation
                      JOINT lRing2_End
                      {
                        OFFSET 1.4655 -1.808 0.9609
                        CHANNELS 6 Xposition Yposition Zposition Zrotation Xrotation Yrotation
                        End Site
                        {
                          OFFSET 0.0147 -0.0181 0.0096
                        }
                      }
                    }
                  }
                  JOINT lPinky1
                  {
                    OFFSET 4.9141 -1.269 0.3591
                    CHANNELS 6 Xposition Yposition Zposition Zrotation Xrotation Yrotation
                    JOINT lPinky2
                    {
                      OFFSET 3.1477 -1.685 0.8462
                      CHANNELS 6 Xposition Yposition Zposition Zrotation Xrotation Yrotation
                      JOINT lPinky2_End
                      {
                        OFFSET 0.8055 -1.585 0.7955
                        CHANNELS 6 Xposition Yposition Zposition Zrotation Xrotation Yrotation
                        End Site
                        {
                          OFFSET 0.0081 -0.0158 0.008
                        }
                      }
                    }
                  }
                }
              }
            }
          }
        }
        JOINT rCollar
        {
          OFFSET -1.7069 20.075 5.0056
          CHANNELS 6 Xposition Yposition Zposition Zrotation Xrotation Yrotation
          JOINT rShldr
          {
            OFFSET -13.6458 -0.047 -4.849
            CHANNELS 6 Xposition Yposition Zposition Zrotation Xrotation Yrotation
            JOINT rForeArm
            {
              OFFSET -28.3255 -0.9759 2.2888
              CHANNELS 6 Xposition Yposition Zposition Zrotation Xrotation Yrotation
              JOINT rHand
              {
                OFFSET -22.1583 -0.53 10.8316
                CHANNELS 6 Xposition Yposition Zposition Zrotation Xrotation Yrotation
                JOINT rThumb1
                {
                  OFFSET -0.786 0.112 2.5817
                  CHANNELS 6 Xposition Yposition Zposition Zrotation Xrotation Yrotation
                  JOINT rThumb2
                  {
                    OFFSET -0.3601 -0.878 4.2331
                    CHANNELS 6 Xposition Yposition Zposition Zrotation Xrotation Yrotation
                    JOINT rThumb2_End
                    {
                      OFFSET -1.8127 -1.216 2.2227
                      CHANNELS 6 Xposition Yposition Zposition Zrotation Xrotation Yrotation
                      End Site
                      {
                        OFFSET -0.0181 -0.0122 0.0222
                      }
                    }
                  }
                }
                JOINT rCarpal1
                {
                  OFFSET -0.9571 1.114 1.7695
                  CHANNELS 6 Xposition Yposition Zposition Zrotation Xrotation Yrotation
                  JOINT rIndex1
                  {
                    OFFSET -4.1246 0.487 4.1451
                    CHANNELS 6 Xposition Yposition Zposition Zrotation Xrotation Yrotation
                    JOINT rIndex2
                    {
                      OFFSET -3.4052 -1.454 2.7682
                      CHANNELS 6 Xposition Yposition Zposition Zrotation Xrotation Yrotation
                      JOINT rIndex2_End
                      {
                        OFFSET -1.4531 -1.795 1.2713
                        CHANNELS 6 Xposition Yposition Zposition Zrotation Xrotation Yrotation
                        End Site
                        {
                          OFFSET -0.0145 -0.018 0.0127
                        }
                      }
                    }
                  }
                  JOINT rMid1
                  {
                    OFFSET -5.6954 0.21 2.1184
                    CHANNELS 6 Xposition Yposition Zposition Zrotation Xrotation Yrotation
                    JOINT rMid2
                    {
                      OFFSET -3.9766 -1.54 2.3863
                      CHANNELS 6 Xposition Yposition Zposition Zrotation Xrotation Yrotation
                      JOINT rMid2_End
                      {
                        OFFSET -1.4042 -1.926 1.125
                        CHANNELS 6 Xposition Yposition Zposition Zrotation Xrotation Yrotation
                        End Site
                        {
                          OFFSET -0.014 -0.0193 0.0113
                        }
                      }
                    }
                  }
                }
                JOINT rCarpal2
                {
                  OFFSET -2.0956 0.66 -0.3894
                  CHANNELS 6 Xposition Yposition Zposition Zrotation Xrotation Yrotation
                  JOINT rRing1
                  {
                    OFFSET -5.0395 -0.09 2.4971
                    CHANNELS 6 Xposition Yposition Zposition Zrotation Xrotation Yrotation
                    JOINT rRing2
                    {
                      OFFSET -3.7921 -1.552 1.4806
                      CHANNELS 6 Xposition Yposition Zposition Zrotation Xrotation Yrotation
                      JOINT rRing2_End
                      {
                        OFFSET -1.4655 -1.808 0.9609
                        CHANNELS 6 Xposition Yposition Zposition Zrotation Xrotation Yrotation
                        End Site
                        {
                          OFFSET -0.0147 -0.0181 0.0096
                        }
                      }
                    }
                  }
                  JOINT rPinky1
                  {
                    OFFSET -4.9141 -1.269 0.3592
                    CHANNELS 6 Xposition Yposition Zposition Zrotation Xrotation Yrotation
                    JOINT rPinky2
                    {
                      OFFSET -3.1477 -1.685 0.8462
                      CHANNELS 6 Xposition Yposition Zposition Zrotation Xrotation Yrotation
                      JOINT rPinky2_End
                      {
                        OFFSET -0.8055 -1.585 0.7955
                        CHANNELS 6 Xposition Yposition Zposition Zrotation Xrotation Yrotation
                        End Site
                        {
                          OFFSET -0.0081 -0.0158 0.008
                        }
                      }
                    }
                  }
                }
              }
            }
          }
        }
      }
    }
  }
  JOINT lThigh
  {
    OFFSET 8.367 -8.2066 0.5982
    CHANNELS 6 Xposition Yposition Zposition Zrotation Xrotation Yrotation
    JOINT lShin
    {
      OFFSET 2.1923 -43.463 -0.4932
      CHANNELS 6 Xposition Yposition Zposition Zrotation Xrotation Yrotation
      JOINT lFoot
      {
        OFFSET 0.7333 -45.8593 -2.6451
        CHANNELS 6 Xposition Yposition Zposition Zrotation Xrotation Yrotation
        End Site
        {
          OFFSET 2.6618 -4.2699 12.3931
        }
      }
    }
  }
  JOINT rThigh
  {
    OFFSET -8.367 -8.2066 0.5982
    CHANNELS 6 Xposition Yposition Zposition Zrotation Xrotation Yrotation
    JOINT rShin
    {
      OFFSET -2.1923 -43.463 -0.4931
      CHANNELS 6 Xposition Yposition Zposition Zrotation Xrotation Yrotation
      JOINT rFoot
      {
        OFFSET -0.7333 -45.8593 -2.6451
        CHANNELS 6 Xposition Yposition Zposition Zrotation Xrotation Yrotation
        End Site
        {
          OFFSET -2.6618 -4.2699 12.3931
        }
      }
    }
  }
}
MOTION
Frames:	4
Frame Time:	0.0333333
0 90.174 2.4664 0 0 -0 0 -1.186 -1.5018 0 0 -0 0 9.964 0.2134 0 0 -0 0 13.134 -3.2573 0 0 -0 0 20.686 -1.6905 0 0 -0 0 7.238 -0.1237 0 0 -0 1.7069 20.075 5.0056 0 0 -0 13.6458 -0.047 -4.849 1.66051 0.0835086 5.75766 28.3255 -0.9759 2.2888 -0.0175111 0.895433 15.7816 22.1583 -0.53 10.8316 7.95139e-016 -1.98785e-016 -0 0.786 0.112 2.5817 5.46658e-016 -3.97569e-016 -0 0.3601 -0.878 4.2331 5.96354e-016 0 -0 1.8127 -1.216 2.2227 3.97569e-016 1.98785e-016 9.54166e-015 0.9571 1.114 1.7695 1.49089e-016 -3.97569e-016 -0 4.1246 0.487 4.1451 6.4605e-016 0 3.18055e-015 3.4052 -1.454 2.7682 5.96354e-016 0 3.18055e-015 1.4531 -1.795 1.2713 8.94531e-016 -1.98785e-016 6.36111e-015 5.6954 0.21 2.1184 6.4605e-016 0 3.18055e-015 3.9766 -1.54 2.3863 5.96354e-016 0 3.18055e-015 1.4042 -1.926 1.125 8.94531e-016 -1.98785e-016 6.36111e-015 2.0956 0.66 -0.3894 1.49089e-016 -3.97569e-016 -0 5.0395 -0.09 2.4971 6.4605e-016 0 3.18055e-015 3.7921 -1.552 1.4806 5.96354e-016 0 3.18055e-015 1.4655 -1.808 0.9609 8.94531e-016 -1.98785e-016 6.36111e-015 4.9141 -1.269 0.3591 6.4605e-016 0 3.18055e-015 3.1477 -1.685 0.8462 5.96354e-016 0 3.18055e-015 0.8055 -1.585 0.7955 8.94531e-016 -1.98785e-016 6.36111e-015 -1.7069 20.075 5.0056 0 0 -0 -13.6458 -0.047 -4.849 -1.4496 0.0636048 -5.0245 -28.3255 -0.9759 2.2888 -1.74811 1.20616 -16.8394 -22.1583 -0.53 10.8316 -1.19271e-015 1.98785e-016 -3.18055e-015 -0.786 0.112 2.5817 -3.97569e-016 1.98785e-016 -3.18055e-015 -0.3601 -0.878 4.2331 -2.98177e-016 1.98785e-016 -3.18055e-015 -1.8127 -1.216 2.2227 -2.98177e-016 3.97569e-016 -0 -0.9571 1.114 1.7695 4.96962e-016 0 -6.36111e-015 -4.1246 0.487 4.1451 -9.93923e-017 3.97569e-016 -0 -3.4052 -1.454 2.7682 -8.94531e-016 5.96354e-016 -0 -1.4531 -1.795 1.2713 -3.97569e-016 3.97569e-016 -0 -5.6954 0.21 2.1184 -9.93923e-017 3.97569e-016 -0 -3.9766 -1.54 2.3863 -8.94531e-016 5.96354e-016 -0 -1.4042 -1.926 1.125 -3.97569e-016 3.97569e-016 -0 -2.0956 0.66 -0.3894 4.96962e-016 0 -6.36111e-015 -5.0395 -0.09 2.4971 -9.93923e-017 3.97569e-016 -0 -3.7921 -1.552 1.4806 -8.94531e-016 5.96354e-016 -0 -1.4655 -1.808 0.9609 -3.97569e-016 3.97569e-016 -0 -4.9141 -1.269 0.3592 -9.93923e-017 3.97569e-016 -0 -3.1477 -1.685 0.8462 -8.94531e-016 5.96354e-016 -0 -0.8055 -1.585 0.7955 -3.97569e-016 3.97569e-016 -0 8.367 -8.2066 0.5982 -4.66115 -1.03232 0.120763 2.1923 -43.463 -0.4932 0.00990601 1.55097 0.177175 0.7333 -45.8593 -2.6451 4.65196 -0.54114 -0.255042 -8.367 -8.2066 0.5982 4.66115 -1.03222 -0.120763 -2.1923 -43.463 -0.4931 -0.00990459 1.5509 -0.177176 -0.7333 -45.8593 -2.6451 -4.65196 -0.541171 0.255041 
-35.297 84.7026 0.804802 -133.333 -5.18128 -4.3875e-008 7.10543e-015 -1.186 -1.5018 -0.0816393 -2.4204 -0.180986 0 9.964 0.2134 -0.171175 -4.84049 -0.365921 7.10543e-015 13.134 -3.2573 -0.171153 -4.8405 -0.365921 7.10543e-015 20.686 -1.6905 0.000662427 19.958 -0.000217299 0 7.238 -0.1237 -5.26023e-006 -27.9196 1.48501e-006 1.7069 20.075 5.0056 -11.951 5.49119 7.03807 13.6458 -0.047 -4.849 5.18072 2.07055 -49.9728 28.3255 -0.9759 2.2888 -13.0573 -6.58583 -23.9427 22.1583 -0.53 10.8316 -32.1814 -26.3617 -12.6577 0.786 0.112 2.5817 1.59028e-015 -6.36111e-015 -0 0.3601 -0.878 4.2331 1.59028e-015 -3.97569e-015 -0 1.8127 -1.216 2.2227 1.59028e-015 -3.18055e-015 3.18055e-015 0.9571 1.114 1.7695 1.59028e-015 -3.18055e-015 -0 4.1246 0.487 4.1451 3.53113e-031 -6.36111e-015 3.18055e-015 3.4052 -1.454 2.7682 4.77083e-015 -3.97569e-015 3.18055e-015 1.4531 -1.795 1.2713 6.36111e-015 -3.18055e-015 -0 5.6954 0.21 2.1184 3.53113e-031 -6.36111e-015 3.18055e-015 3.9766 -1.54 2.3863 4.77083e-015 -3.97569e-015 3.18055e-015 1.4042 -1.926 1.125 6.36111e-015 -3.18055e-015 -0 2.0956 0.66 -0.3894 1.59028e-015 -3.18055e-015 -0 5.0395 -0.09 2.4971 3.53113e-031 -6.36111e-015 3.18055e-015 3.7921 -1.552 1.4806 4.77083e-015 -3.97569e-015 3.18055e-015 1.4655 -1.808 0.9609 6.36111e-015 -3.18055e-015 -0 4.9141 -1.269 0.3591 3.53113e-031 -6.36111e-015 3.18055e-015 3.1477 -1.685 0.8462 4.77083e-015 -3.97569e-015 3.18055e-015 0.8055 -1.585 0.7955 6.36111e-015 -3.18055e-015 -0 -1.7069 20.075 5.0056 12.6877 5.38929 -7.01191 -13.6458 -0.047 -4.849 -11.6836 2.13602 39.3929 -28.3255 -0.9759 2.2888 11.5269 -7.32763 29.7543 -22.1583 -0.53 10.8316 35.1599 -23.0468 15.0774 -0.786 0.112 2.5817 1.59028e-015 6.36111e-015 6.36111e-015 -0.3601 -0.878 4.2331 3.18055e-015 5.56597e-015 3.18055e-015 -1.8127 -1.216 2.2227 1.59028e-015 5.56597e-015 3.18055e-015 -0.9571 1.114 1.7695 -2.64834e-031 2.38542e-015 6.36111e-015 -4.1246 0.487 4.1451 1.11319e-014 -2.38542e-014 6.36111e-015 -3.4052 -1.454 2.7682 -1.59028e-015 3.97569e-015 -3.18055e-015 -1.4531 -1.795 1.2713 1.59028e-015 6.36111e-015 6.36111e-015 -5.6954 0.21 2.1184 1.11319e-014 -2.38542e-014 6.36111e-015 -3.9766 -1.54 2.3863 -1.59028e-015 3.97569e-015 -3.18055e-015 -1.4042 -1.926 1.125 1.59028e-015 6.36111e-015 6.36111e-015 -2.0956 0.66 -0.3894 -2.64834e-031 2.38542e-015 6.36111e-015 -5.0395 -0.09 2.4971 1.11319e-014 -2.38542e-014 6.36111e-015 -3.7921 -1.552 1.4806 -1.59028e-015 3.97569e-015 -3.18055e-015 -1.4655 -1.808 0.9609 1.59028e-015 6.36111e-015 6.36111e-015 -4.9141 -1.269 0.3592 1.11319e-014 -2.38542e-014 6.36111e-015 -3.1477 -1.685 0.8462 -1.59028e-015 3.97569e-015 -3.18055e-015 -0.8055 -1.585 0.7955 1.59028e-015 6.36111e-015 6.36111e-015 8.367 -8.2066 0.5982 16.7034 -47.4456 16.9051 2.1923 -43.463 -0.4932 -76.9902 53.4822 86.1463 0.7333 -45.8593 -2.6451 18.3886 14.8258 -22.9061 -8.367 -8.2066 0.5982 -29.048 -45.4217 -32.744 -2.1923 -43.463 -0.4931 71.5967 51.845 -73.8254 -0.7333 -45.8593 -2.6451 -18.2251 19.3153 24.002 
-60.4193 89.3898 1.08086 166.667 -7.51338 1.45433e-008 1.42109e-014 -1.186 -1.5018 -0.127403 -3.42524 -0.261257 -1.42109e-014 9.964 0.2134 -0.271268 -6.8498 -0.531589 0 13.134 -3.2573 -0.271269 -6.84981 -0.53159 0 20.686 -1.6905 2.23312e-006 29.136 -1.1801e-006 0 7.238 -0.1237 4.73527e-007 -41.6197 -2.13436e-006 1.7069 20.075 5.0056 -17.8163 7.57314 10.9704 13.6458 -0.047 -4.849 7.61612 -0.279897 -75.0177 28.3255 -0.9759 2.2888 -21.8802 -6.1259 -42.5691 22.1583 -0.53 10.8316 -51.647 -35.6805 -21.6082 0.786 0.112 2.5817 1.24168e-006 -4.44131e-007 -1.06599e-006 0.3601 -0.878 4.2331 -2.13199e-006 -4.01825e-007 -2.48335e-006 1.8127 -1.216 2.2227 2.20695e-032 7.95139e-016 -1.59028e-015 0.9571 1.114 1.7695 3.18055e-015 7.95139e-016 4.77083e-015 4.1246 0.487 4.1451 1.24168e-006 -4.44131e-007 -1.06599e-006 3.4052 -1.454 2.7682 -2.13199e-006 -4.01825e-007 -2.48335e-006 1.4531 -1.795 1.2713 -9.93129e-032 -1.59028e-015 -3.57812e-015 5.6954 0.21 2.1184 1.24168e-006 -4.44131e-007 -1.06599e-006 3.9766 -1.54 2.3863 -2.13199e-006 -4.01825e-007 -2.48335e-006 1.4042 -1.926 1.125 -9.93129e-032 -1.59028e-015 -3.57812e-015 2.0956 0.66 -0.3894 3.18055e-015 7.95139e-016 4.77083e-015 5.0395 -0.09 2.4971 1.24168e-006 -4.44131e-007 -1.06599e-006 3.7921 -1.552 1.4806 -2.13199e-006 -4.01825e-007 -2.48335e-006 1.4655 -1.808 0.9609 -9.93129e-032 -1.59028e-015 -3.57812e-015 4.9141 -1.269 0.3591 1.24168e-006 -4.44131e-007 -1.06599e-006 3.1477 -1.685 0.8462 -2.13199e-006 -4.01825e-007 -2.48335e-006 0.8055 -1.585 0.7955 -9.93129e-032 -1.59028e-015 -3.57812e-015 -1.7069 20.075 5.0056 18.8279 7.31729 -10.8888 -13.6458 -0.047 -4.849 -17.0187 1.56955 60.1495 -28.3255 -0.9759 2.2888 20.7323 -6.11407 51.1769 -22.1583 -0.53 10.8316 55.8673 -30.3086 23.8817 -0.786 0.112 2.5817 3.18055e-015 7.35503e-015 -1.09332e-014 -0.3601 -0.878 4.2331 3.4325e-030 1.25234e-014 -1.5704e-014 -1.8127 -1.216 2.2227 1.49866e-030 8.15017e-015 -1.05356e-014 -0.9571 1.114 1.7695 3.18055e-015 9.93923e-016 -4.57205e-015 -4.1246 0.487 4.1451 6.82086e-031 -4.57205e-015 8.54774e-015 -3.4052 -1.454 2.7682 -6.36111e-015 5.76476e-015 -1.27222e-014 -1.4531 -1.795 1.2713 6.36111e-015 2.98177e-015 -1.25234e-014 -5.6954 0.21 2.1184 6.82086e-031 -4.57205e-015 8.54774e-015 -3.9766 -1.54 2.3863 -6.36111e-015 5.76476e-015 -1.27222e-014 -1.4042 -1.926 1.125 6.36111e-015 2.98177e-015 -1.25234e-014 -2.0956 0.66 -0.3894 3.18055e-015 9.93923e-016 -4.57205e-015 -5.0395 -0.09 2.4971 6.82086e-031 -4.57205e-015 8.54774e-015 -3.7921 -1.552 1.4806 -6.36111e-015 5.76476e-015 -1.27222e-014 -1.4655 -1.808 0.9609 6.36111e-015 2.98177e-015 -1.25234e-014 -4.9141 -1.269 0.3592 6.82086e-031 -4.57205e-015 8.54774e-015 -3.1477 -1.685 0.8462 -6.36111e-015 5.76476e-015 -1.27222e-014 -0.8055 -1.585 0.7955 6.36111e-015 2.98177e-015 -1.25234e-014 8.367 -8.2066 0.5982 41.403 -61.8267 36.684 2.1923 -43.463 -0.4932 -118.236 31.8274 111.546 0.7333 -45.8593 -2.6451 27.4201 22.3898 -34.2836 -8.367 -8.2066 0.5982 -67.1662 -54.1002 -67.4325 -2.1923 -43.463 -0.4931 122.817 33.9292 -109.728 -0.7333 -45.8593 -2.6451 -30.2838 24.0581 35.9846 
-55.0432 88.0647 1.11488 -180 -6.99617 -7.01671e-015 0 -1.186 -1.5018 -0.117465 -3.01431 -0.242717 -7.10543e-015 9.964 0.2134 -0.248252 -6.02807 -0.492656 7.10543e-015 13.134 -3.2573 -0.248253 -6.02807 -0.492657 7.10543e-015 20.686 -1.6905 -1.1206e-005 27.5353 6.46641e-006 7.10543e-015 7.238 -0.1237 4.57027e-008 -41.1031 -2.30896e-007 1.7069 20.075 5.0056 -16.5604 6.40395 11.6783 13.6458 -0.047 -4.849 6.73057 0.165664 -69.7724 28.3255 -0.9759 2.2888 -20.1135 -6.00383 -39.8677 22.1583 -0.53 10.8316 -46.7758 -33.9974 -19.4459 0.786 0.112 2.5817 -3.10353e-033 8.94531e-016 1.98785e-016 0.3601 -0.878 4.2331 -1.21086e-006 6.85234e-007 9.7863e-007 1.8127 -1.216 2.2227 -3.28974e-031 -3.57812e-015 -5.26779e-015 0.9571 1.114 1.7695 3.18055e-015 8.94531e-016 1.98785e-016 4.1246 0.487 4.1451 -6.36111e-015 8.64713e-015 5.1684e-015 3.4052 -1.454 2.7682 -1.21086e-006 6.85234e-007 9.7863e-007 1.4531 -1.795 1.2713 1.94315e-031 2.28602e-015 -4.87022e-015 5.6954 0.21 2.1184 -6.36111e-015 8.64713e-015 5.1684e-015 3.9766 -1.54 2.3863 -1.21086e-006 6.85234e-007 9.7863e-007 1.4042 -1.926 1.125 1.94315e-031 2.28602e-015 -4.87022e-015 2.0956 0.66 -0.3894 3.18055e-015 8.94531e-016 1.98785e-016 5.0395 -0.09 2.4971 -6.36111e-015 8.64713e-015 5.1684e-015 3.7921 -1.552 1.4806 -1.21086e-006 6.85234e-007 9.7863e-007 1.4655 -1.808 0.9609 1.94315e-031 2.28602e-015 -4.87022e-015 4.9141 -1.269 0.3591 -6.36111e-015 8.64713e-015 5.1684e-015 3.1477 -1.685 0.8462 -1.21086e-006 6.85234e-007 9.7863e-007 0.8055 -1.585 0.7955 1.94315e-031 2.28602e-015 -4.87022e-015 -1.7069 20.075 5.0056 17.4079 5.93829 -11.5182 -13.6458 -0.047 -4.849 -15.1058 2.17024 57.3287 -28.3255 -0.9759 2.2888 18.7848 -6.55029 47.1633 -22.1583 -0.53 10.8316 50.7636 -29.2053 21.771 -0.786 0.112 2.5817 -5.68737e-006 2.57834e-006 2.5926e-007 -0.3601 -0.878 4.2331 4.06229e-006 -3.15653e-006 3.16858e-006 -1.8127 -1.216 2.2227 -1.5202e-006 1.9467e-006 2.52094e-006 -0.9571 1.114 1.7695 -6.36111e-015 -1.39149e-015 -1.59028e-015 -4.1246 0.487 4.1451 -5.68737e-006 2.57834e-006 2.5926e-007 -3.4052 -1.454 2.7682 4.06229e-006 -3.15653e-006 3.16858e-006 -1.4531 -1.795 1.2713 -1.5202e-006 1.9467e-006 2.52094e-006 -5.6954 0.21 2.1184 -5.68737e-006 2.57834e-006 2.5926e-007 -3.9766 -1.54 2.3863 4.06229e-006 -3.15653e-006 3.16858e-006 -1.4042 -1.926 1.125 -1.5202e-006 1.9467e-006 2.52094e-006 -2.0956 0.66 -0.3894 -6.36111e-015 -1.39149e-015 -1.59028e-015 -5.0395 -0.09 2.4971 -5.68737e-006 2.57834e-006 2.5926e-007 -3.7921 -1.552 1.4806 4.06229e-006 -3.15653e-006 3.16858e-006 -1.4655 -1.808 0.9609 -1.5202e-006 1.9467e-006 2.52094e-006 -4.9141 -1.269 0.3592 -5.68737e-006 2.57834e-006 2.5926e-007 -3.1477 -1.685 0.8462 4.06229e-006 -3.15653e-006 3.16858e-006 -0.8055 -1.585 0.7955 -1.5202e-006 1.9467e-006 2.52094e-006 8.367 -8.2066 0.5982 33.0001 -58.6289 30.5578 2.1923 -43.463 -0.4932 -110.73 37.5912 109.115 0.7333 -45.8593 -2.6451 26.0386 20.3871 -31.5576 -8.367 -8.2066 0.5982 -56.9616 -53.3252 -58.2161 -2.1923 -43.463 -0.4931 114.113 39.27 -105.386 -0.7333 -45.8593 -2.6451 -27.6296 22.674 33.3492 
